<svg version="1.1" id="Layer_1" xmlns="http://www.w3.org/2000/svg" xmlns:xlink="http://www.w3.org/1999/xlink" x="0px" y="0px"
	 width="100%" viewBox="0 0 480 136" enable-background="new 0 0 480 136" xml:space="preserve">
<path fill="#FFFDFD" opacity="1.000000" stroke="none" 
	d="
M313.000000,137.000000 
	C208.666702,137.000000 104.833397,137.000000 1.000070,137.000000 
	C1.000046,91.666710 1.000046,46.333424 1.000023,1.000100 
	C160.999908,1.000067 320.999817,1.000067 480.999817,1.000033 
	C480.999878,46.333225 480.999878,91.666451 480.999939,136.999847 
	C425.166656,137.000000 369.333344,137.000000 313.000000,137.000000 
M260.049438,70.500000 
	C260.049438,59.398502 260.049438,48.297009 260.049438,37.100006 
	C254.615448,37.100006 249.863419,37.100006 244.976639,37.100006 
	C244.807983,39.446774 244.660370,41.500946 244.491776,43.846947 
	C231.834961,32.649010 214.938538,32.548607 203.055054,43.262131 
	C190.485748,54.593971 188.108902,75.054306 197.782043,88.870659 
	C203.235245,96.659569 210.623291,101.329636 220.125168,102.444893 
	C229.412460,103.534973 237.740906,101.476440 244.530014,93.911201 
	C244.744995,96.824677 244.897690,98.894028 245.040436,100.828506 
	C250.290054,100.828506 255.011810,100.828506 260.049500,100.828506 
	C260.049500,90.785515 260.049500,81.142761 260.049438,70.500000 
M155.398239,35.067806 
	C137.137054,35.250164 124.728371,44.784657 121.365623,61.217533 
	C117.878075,78.260307 125.265579,93.970612 139.576721,99.945351 
	C154.480698,106.167587 173.727631,102.093857 180.994186,91.589905 
	C178.268295,88.582695 175.615814,85.656487 172.817291,82.569160 
	C164.133286,89.990311 154.710770,92.165314 144.466537,87.055580 
	C139.020981,84.339371 136.533203,79.445564 136.052582,72.810478 
	C152.901947,72.810478 169.307739,72.810478 185.606216,72.810478 
	C189.033905,52.956188 176.132812,36.641171 155.398239,35.067806 
M361.042145,95.385849 
	C361.042145,97.165817 361.042145,98.945793 361.042145,100.935654 
	C366.362274,100.935654 371.093689,100.935654 375.903046,100.935654 
	C375.903046,85.379967 376.612549,70.071617 375.665253,54.866486 
	C374.980347,43.872486 366.900726,37.152153 355.819336,35.734146 
	C346.878479,34.590042 339.148529,37.033298 332.665192,44.552471 
	C332.368256,41.489109 332.155762,39.296898 331.954041,37.215992 
	C326.838684,37.215992 322.126923,37.215992 317.437805,37.215992 
	C317.437805,58.699284 317.437805,79.763733 317.437805,100.855469 
	C322.513397,100.855469 327.240173,100.855469 332.076263,100.855469 
	C332.172546,99.681183 332.296021,98.868164 332.297302,98.054955 
	C332.315308,86.730324 332.122070,75.401184 332.383118,64.082428 
	C332.594421,54.918747 338.982422,48.973354 347.715057,49.180580 
	C356.316895,49.384701 360.977783,54.675064 361.027832,64.435661 
	C361.079041,74.427765 361.040894,84.420319 361.042145,95.385849 
M421.727051,54.788857 
	C424.278625,58.290283 426.644318,61.949596 429.441132,65.242737 
	C431.644684,67.837364 431.769012,69.683685 429.577576,72.505623 
	C423.754944,80.003387 418.333954,87.813171 412.759155,95.503166 
	C411.556122,97.162636 410.378052,98.840218 408.672668,101.233253 
	C413.144836,101.233253 416.490662,100.978966 419.780670,101.298927 
	C423.713531,101.681419 426.218536,100.296341 428.397491,96.969551 
	C432.027893,91.426750 436.164185,86.215309 440.400238,80.437767 
	C444.963135,86.648315 449.133606,92.435013 453.449005,98.111511 
	C454.386932,99.345253 455.784943,100.966805 457.073120,101.064529 
	C461.759033,101.420006 466.488281,101.204842 471.349670,101.204842 
	C471.114380,100.160301 471.132751,99.786919 470.961914,99.549866 
	C466.091003,92.790596 461.207672,86.040222 456.312653,79.298340 
	C448.762329,68.899353 448.757721,68.902252 456.443695,58.393246 
	C461.510559,51.465328 466.578461,44.538143 472.241455,36.796436 
	C467.295776,36.796436 463.488098,37.014507 459.718353,36.730068 
	C456.480408,36.485756 454.531616,37.689079 452.744873,40.335392 
	C448.933289,45.980778 444.774261,51.391609 440.392273,57.399364 
	C435.926117,51.241535 431.801300,45.424446 427.506134,39.736012 
	C426.588745,38.521095 425.105713,37.037266 423.792236,36.942719 
	C419.093811,36.604519 414.356262,36.810280 408.620209,36.810280 
	C413.306763,43.245388 417.301117,48.730038 421.727051,54.788857 
M80.398697,47.183807 
	C83.982758,50.652203 87.562485,54.125088 91.152046,57.587788 
	C95.131683,61.426777 99.024040,61.877129 102.101776,58.868710 
	C105.149567,55.889557 104.910309,51.637169 101.083183,47.926018 
	C97.404289,44.358616 93.420044,41.106113 88.742897,36.986813 
	C93.629463,32.517979 97.402306,29.255852 100.954147,25.768618 
	C104.813721,21.979258 105.176865,17.859079 102.210045,14.853194 
	C99.241493,11.845550 95.018410,12.172519 91.279373,15.965279 
	C87.704376,19.591646 84.332024,23.417786 80.221817,27.856800 
	C75.939949,23.242052 72.646736,19.500572 69.142525,15.968416 
	C65.384720,12.180647 61.168564,11.842366 58.180725,14.814738 
	C55.068748,17.910604 55.383472,21.770725 59.312248,25.711382 
	C62.917923,29.327963 66.698723,32.769947 70.952820,36.811855 
	C66.416092,41.135403 62.468159,44.693592 58.762997,48.488792 
	C55.347969,51.986801 55.231682,55.674427 58.072998,58.651699 
	C61.011513,61.730820 64.967270,61.579380 68.635994,58.101795 
	C72.379616,54.553211 76.023354,50.899250 80.398697,47.183807 
M287.406433,42.825729 
	C287.187469,43.639702 286.968536,44.453671 286.749573,45.267639 
	C286.285767,44.867382 285.821930,44.467125 285.358124,44.066868 
	C285.228851,41.822010 285.099609,39.577156 284.956116,37.085453 
	C279.997772,37.085453 275.267883,37.085453 270.397705,37.085453 
	C270.397705,58.564083 270.397705,79.753151 270.397705,100.790276 
	C275.535919,100.790276 280.263580,100.790276 285.201691,100.790276 
	C285.201691,89.369141 285.072998,78.383034 285.237885,67.401337 
	C285.402802,56.418228 291.940063,50.159405 302.906555,50.109341 
	C304.827881,50.100567 306.749298,50.108093 308.857544,50.108093 
	C308.857544,45.251804 308.857544,40.801102 308.857544,35.868210 
	C300.745361,34.802197 293.594910,36.058449 287.406433,42.825729 
M385.300140,98.909805 
	C385.922943,99.711479 386.514954,101.177063 387.173523,101.207611 
	C391.609924,101.413391 396.060486,101.314835 400.501770,101.314835 
	C400.501770,79.526955 400.501770,58.335178 400.501770,37.050571 
	C395.384735,37.050571 390.628601,37.050571 386.006042,37.050571 
	C385.720123,37.605412 385.440796,37.894913 385.439880,38.185303 
	C385.375916,58.128258 385.334259,78.071289 385.300140,98.909805 
M84.897438,76.165726 
	C87.850029,71.640076 87.790955,68.095192 84.461784,65.641350 
	C80.699684,62.868397 77.372490,63.964054 74.290108,67.079239 
	C66.814514,74.634399 59.242710,82.094307 51.760963,89.643433 
	C47.575905,93.866188 47.222927,97.685211 50.561619,100.877632 
	C53.681160,103.860504 57.559860,103.467087 61.477074,99.589310 
	C69.148552,91.995079 76.754501,84.334656 84.897438,76.165726 
M51.948898,40.131794 
	C53.836555,36.415848 52.975353,33.244358 49.615971,31.036770 
	C46.410854,28.930557 43.234612,29.665361 40.577141,32.303532 
	C32.567390,40.255108 24.540098,48.190819 16.648230,56.258495 
	C13.309805,59.671291 13.269180,63.495384 16.101904,66.435165 
	C19.023829,69.467522 23.092291,69.364815 26.641691,65.843948 
	C35.005905,57.546947 43.255039,49.133934 51.948898,40.131794 
M35.126972,91.627197 
	C40.305061,86.439896 45.553238,81.320045 50.634563,76.039627 
	C53.612663,72.944847 53.789387,69.490089 50.803921,66.239380 
	C48.150425,63.350121 44.145550,63.219398 41.007812,66.271645 
	C32.650417,74.401329 24.399252,82.644836 16.276924,91.009209 
	C13.194940,94.183044 13.336917,98.120872 16.293390,100.791405 
	C19.546829,103.730171 22.974733,103.507339 26.115595,100.576027 
	C29.036722,97.849785 31.796074,94.950203 35.126972,91.627197 
M396.348389,28.111248 
	C397.756836,27.991728 399.165253,27.872208 400.509644,27.758123 
	C400.509644,22.562149 400.509644,17.851635 400.509644,13.002560 
	C395.407196,13.002560 390.663452,13.002560 385.649414,13.002560 
	C385.649414,18.077166 385.649414,22.920633 385.649414,28.111349 
	C389.139252,28.111349 392.265442,28.111349 396.348389,28.111248 
z"/>
<path fill="#F35031" opacity="1.000000" stroke="none" 
	d="
M260.049469,71.000000 
	C260.049500,81.142761 260.049500,90.785515 260.049500,100.828506 
	C255.011810,100.828506 250.290054,100.828506 245.040436,100.828506 
	C244.897690,98.894028 244.744995,96.824677 244.530014,93.911201 
	C237.740906,101.476440 229.412460,103.534973 220.125168,102.444893 
	C210.623291,101.329636 203.235245,96.659569 197.782043,88.870659 
	C188.108902,75.054306 190.485748,54.593971 203.055054,43.262131 
	C214.938538,32.548607 231.834961,32.649010 244.491776,43.846947 
	C244.660370,41.500946 244.807983,39.446774 244.976639,37.100006 
	C249.863419,37.100006 254.615448,37.100006 260.049438,37.100006 
	C260.049438,48.297009 260.049438,59.398502 260.049469,71.000000 
M244.132874,77.367783 
	C244.615616,75.783737 245.242416,74.227791 245.557785,72.611092 
	C247.648926,61.891037 240.675415,51.697960 229.953918,49.711777 
	C219.083160,47.697941 209.678741,54.128773 207.544434,65.035591 
	C205.660599,74.662445 210.561798,84.128563 219.138351,87.427910 
	C228.488373,91.024811 237.805649,87.492859 244.132874,77.367783 
z"/>
<path fill="#F35132" opacity="1.000000" stroke="none" 
	d="
M155.852783,35.084599 
	C176.132812,36.641171 189.033905,52.956188 185.606216,72.810478 
	C169.307739,72.810478 152.901947,72.810478 136.052582,72.810478 
	C136.533203,79.445564 139.020981,84.339371 144.466537,87.055580 
	C154.710770,92.165314 164.133286,89.990311 172.817291,82.569160 
	C175.615814,85.656487 178.268295,88.582695 180.994186,91.589905 
	C173.727631,102.093857 154.480698,106.167587 139.576721,99.945351 
	C125.265579,93.970612 117.878075,78.260307 121.365623,61.217533 
	C124.728371,44.784657 137.137054,35.250164 155.852783,35.084599 
M146.534561,61.220207 
	C154.466690,61.220207 162.398834,61.220207 170.399368,61.220207 
	C169.240494,52.818256 162.740906,48.301624 153.121597,48.678928 
	C143.732925,49.047184 137.450119,53.805519 137.121384,61.220497 
	C139.940109,61.220497 142.743561,61.220497 146.534561,61.220207 
z"/>
<path fill="#F35030" opacity="1.000000" stroke="none" 
	d="
M361.041992,94.899261 
	C361.040894,84.420319 361.079041,74.427765 361.027832,64.435661 
	C360.977783,54.675064 356.316895,49.384701 347.715057,49.180580 
	C338.982422,48.973354 332.594421,54.918747 332.383118,64.082428 
	C332.122070,75.401184 332.315308,86.730324 332.297302,98.054955 
	C332.296021,98.868164 332.172546,99.681183 332.076263,100.855469 
	C327.240173,100.855469 322.513397,100.855469 317.437805,100.855469 
	C317.437805,79.763733 317.437805,58.699284 317.437805,37.215992 
	C322.126923,37.215992 326.838684,37.215992 331.954041,37.215992 
	C332.155762,39.296898 332.368256,41.489109 332.665192,44.552471 
	C339.148529,37.033298 346.878479,34.590042 355.819336,35.734146 
	C366.900726,37.152153 374.980347,43.872486 375.665253,54.866486 
	C376.612549,70.071617 375.903046,85.379967 375.903046,100.935654 
	C371.093689,100.935654 366.362274,100.935654 361.042145,100.935654 
	C361.042145,98.945793 361.042145,97.165817 361.041992,94.899261 
z"/>
<path fill="#F35132" opacity="1.000000" stroke="none" 
	d="
M421.511292,54.501774 
	C417.301117,48.730038 413.306763,43.245388 408.620209,36.810280 
	C414.356262,36.810280 419.093811,36.604519 423.792236,36.942719 
	C425.105713,37.037266 426.588745,38.521095 427.506134,39.736012 
	C431.801300,45.424446 435.926117,51.241535 440.392273,57.399364 
	C444.774261,51.391609 448.933289,45.980778 452.744873,40.335392 
	C454.531616,37.689079 456.480408,36.485756 459.718353,36.730068 
	C463.488098,37.014507 467.295776,36.796436 472.241455,36.796436 
	C466.578461,44.538143 461.510559,51.465328 456.443695,58.393246 
	C448.757721,68.902252 448.762329,68.899353 456.312653,79.298340 
	C461.207672,86.040222 466.091003,92.790596 470.961914,99.549866 
	C471.132751,99.786919 471.114380,100.160301 471.349670,101.204842 
	C466.488281,101.204842 461.759033,101.420006 457.073120,101.064529 
	C455.784943,100.966805 454.386932,99.345253 453.449005,98.111511 
	C449.133606,92.435013 444.963135,86.648315 440.400238,80.437767 
	C436.164185,86.215309 432.027893,91.426750 428.397491,96.969551 
	C426.218536,100.296341 423.713531,101.681419 419.780670,101.298927 
	C416.490662,100.978966 413.144836,101.233253 408.672668,101.233253 
	C410.378052,98.840218 411.556122,97.162636 412.759155,95.503166 
	C418.333954,87.813171 423.754944,80.003387 429.577576,72.505623 
	C431.769012,69.683685 431.644684,67.837364 429.441132,65.242737 
	C426.644318,61.949596 424.278625,58.290283 421.511292,54.501774 
z"/>
<path fill="#F35132" opacity="1.000000" stroke="none" 
	d="
M80.054764,47.237617 
	C76.023354,50.899250 72.379616,54.553211 68.635994,58.101795 
	C64.967270,61.579380 61.011513,61.730820 58.072998,58.651699 
	C55.231682,55.674427 55.347969,51.986801 58.762997,48.488792 
	C62.468159,44.693592 66.416092,41.135403 70.952820,36.811855 
	C66.698723,32.769947 62.917923,29.327963 59.312248,25.711382 
	C55.383472,21.770725 55.068748,17.910604 58.180725,14.814738 
	C61.168564,11.842366 65.384720,12.180647 69.142525,15.968416 
	C72.646736,19.500572 75.939949,23.242052 80.221817,27.856800 
	C84.332024,23.417786 87.704376,19.591646 91.279373,15.965279 
	C95.018410,12.172519 99.241493,11.845550 102.210045,14.853194 
	C105.176865,17.859079 104.813721,21.979258 100.954147,25.768618 
	C97.402306,29.255852 93.629463,32.517979 88.742897,36.986813 
	C93.420044,41.106113 97.404289,44.358616 101.083183,47.926018 
	C104.910309,51.637169 105.149567,55.889557 102.101776,58.868710 
	C99.024040,61.877129 95.131683,61.426777 91.152046,57.587788 
	C87.562485,54.125088 83.982758,50.652203 80.054764,47.237617 
z"/>
<path fill="#F35031" opacity="1.000000" stroke="none" 
	d="
M287.634216,42.556885 
	C293.594910,36.058449 300.745361,34.802197 308.857544,35.868210 
	C308.857544,40.801102 308.857544,45.251804 308.857544,50.108093 
	C306.749298,50.108093 304.827881,50.100567 302.906555,50.109341 
	C291.940063,50.159405 285.402802,56.418228 285.237885,67.401337 
	C285.072998,78.383034 285.201691,89.369141 285.201691,100.790276 
	C280.263580,100.790276 275.535919,100.790276 270.397705,100.790276 
	C270.397705,79.753151 270.397705,58.564083 270.397705,37.085453 
	C275.267883,37.085453 279.997772,37.085453 284.956116,37.085453 
	C285.099609,39.577156 285.228851,41.822010 285.358124,44.066868 
	C285.821930,44.467125 286.285767,44.867382 286.749573,45.267639 
	C286.968536,44.453671 287.187469,43.639702 287.634216,42.556885 
z"/>
<path fill="#F25536" opacity="1.000000" stroke="none" 
	d="
M385.295441,98.462059 
	C385.334259,78.071289 385.375916,58.128258 385.439880,38.185303 
	C385.440796,37.894913 385.720123,37.605412 386.006042,37.050571 
	C390.628601,37.050571 395.384735,37.050571 400.501770,37.050571 
	C400.501770,58.335178 400.501770,79.526955 400.501770,101.314835 
	C396.060486,101.314835 391.609924,101.413391 387.173523,101.207611 
	C386.514954,101.177063 385.922943,99.711479 385.295441,98.462059 
z"/>
<path fill="#F35435" opacity="1.000000" stroke="none" 
	d="
M84.642502,76.433678 
	C76.754501,84.334656 69.148552,91.995079 61.477074,99.589310 
	C57.559860,103.467087 53.681160,103.860504 50.561619,100.877632 
	C47.222927,97.685211 47.575905,93.866188 51.760963,89.643433 
	C59.242710,82.094307 66.814514,74.634399 74.290108,67.079239 
	C77.372490,63.964054 80.699684,62.868397 84.461784,65.641350 
	C87.790955,68.095192 87.850029,71.640076 84.642502,76.433678 
z"/>
<path fill="#F35435" opacity="1.000000" stroke="none" 
	d="
M51.749809,40.449821 
	C43.255039,49.133934 35.005905,57.546947 26.641691,65.843948 
	C23.092291,69.364815 19.023829,69.467522 16.101904,66.435165 
	C13.269180,63.495384 13.309805,59.671291 16.648230,56.258495 
	C24.540098,48.190819 32.567390,40.255108 40.577141,32.303532 
	C43.234612,29.665361 46.410854,28.930557 49.615971,31.036770 
	C52.975353,33.244358 53.836555,36.415848 51.749809,40.449821 
z"/>
<path fill="#F35031" opacity="1.000000" stroke="none" 
	d="
M34.876808,91.877075 
	C31.796074,94.950203 29.036722,97.849785 26.115595,100.576027 
	C22.974733,103.507339 19.546829,103.730171 16.293390,100.791405 
	C13.336917,98.120872 13.194940,94.183044 16.276924,91.009209 
	C24.399252,82.644836 32.650417,74.401329 41.007812,66.271645 
	C44.145550,63.219398 48.150425,63.350121 50.803921,66.239380 
	C53.789387,69.490089 53.612663,72.944847 50.634563,76.039627 
	C45.553238,81.320045 40.305061,86.439896 34.876808,91.877075 
z"/>
<path fill="#F15638" opacity="1.000000" stroke="none" 
	d="
M395.869995,28.111298 
	C392.265442,28.111349 389.139252,28.111349 385.649414,28.111349 
	C385.649414,22.920633 385.649414,18.077166 385.649414,13.002560 
	C390.663452,13.002560 395.407196,13.002560 400.509644,13.002560 
	C400.509644,17.851635 400.509644,22.562149 400.509644,27.758123 
	C399.165253,27.872208 397.756836,27.991728 395.869995,28.111298 
z"/>
<path fill="#FEFBFA" opacity="1.000000" stroke="none" 
	d="
M243.980911,77.718048 
	C237.805649,87.492859 228.488373,91.024811 219.138351,87.427910 
	C210.561798,84.128563 205.660599,74.662445 207.544434,65.035591 
	C209.678741,54.128773 219.083160,47.697941 229.953918,49.711777 
	C240.675415,51.697960 247.648926,61.891037 245.557785,72.611092 
	C245.242416,74.227791 244.615616,75.783737 243.980911,77.718048 
z"/>
<path fill="#FEFAF9" opacity="1.000000" stroke="none" 
	d="
M146.040771,61.220352 
	C142.743561,61.220497 139.940109,61.220497 137.121384,61.220497 
	C137.450119,53.805519 143.732925,49.047184 153.121597,48.678928 
	C162.740906,48.301624 169.240494,52.818256 170.399368,61.220207 
	C162.398834,61.220207 154.466690,61.220207 146.040771,61.220352 
z"/>
</svg>